<?xml version="1.0" standalone="no"?>
<svg xmlns="http://www.w3.org/2000/svg" viewBox="0 0 312.4094344035634 99.44068440356338" width="312.4094344035634" height="99.44068440356338"><rect fill="none" stroke="#616176" stroke-width="4" width="308.4094344035634" height="95.44068440356338" x="2" y="2"></rect><g fill="#a81414" color="#a81414" transform="translate(12 12.786) scale(1.571681)"><svg width="48.0" height="47.0" x="0.0" y="0.0" viewBox="0 0 48 47"><path fill="currentColor" fill-rule="evenodd" d="M32.083 0l-.46.265-2.644 1.527-13.062 7.542L3.854 30.228.267 36.442l-.267.46 2.117 1.222 13.925 8.042.123.07H48V27.57l-.071-.124L34.953 4.97 32.083 0zM25.04 5.292l6.654-3.841 6.547 11.34-13.2-7.5zm-7.67 4.43l6.604-3.814 15.317 8.703 6.725 11.65-28.647-16.54zm-.531.92l29.566 17.07-29.566 17.07v-34.14zM9.171 40.97l-.123-17.615 6.728-11.65v33.078L9.17 40.97zm-7.72-4.457l6.547-11.338.107 15.18-6.654-3.842zm45.487-7.88v7.627l-15.194 8.912H18.29l28.648-16.54zm0 8.858v7.681H33.842l13.096-7.681zM23.567 22.294l9.384 5.42-9.384 5.417V22.294zm1.06 1.84v7.156l6.198-3.577-6.198-3.578z"></path></svg></g><path fill="#a81414" fill-rule="nonzero" d="M3.18 0L12.46 0Q16.91 0 19.42 1.92Q21.93 3.85 21.93 7.70L21.93 7.70Q21.93 9.59 20.73 11.08Q19.53 12.58 17.56 13.30L17.56 13.30Q20.12 13.85 21.60 15.82Q23.09 17.79 23.09 20.41L23.09 20.41Q23.09 24.32 20.55 26.38Q18.01 28.44 13.67 28.44L13.67 28.44L0 28.44L0 25.98L3.18 25.43L3.18 3.03L0 2.48L0 0L3.18 0ZM14.26 15.10L7.03 15.10L7.03 25.43L13.67 25.43Q16.31 25.43 17.76 24.13Q19.22 22.83 19.22 20.45L19.22 20.45Q19.22 17.95 18.00 16.52Q16.78 15.10 14.26 15.10L14.26 15.10ZM7.03 3.03L7.03 12.09L13.46 12.09Q15.53 12.03 16.81 10.86Q18.09 9.69 18.09 7.62L18.09 7.62Q18.09 5.31 16.64 4.17Q15.20 3.03 12.46 3.03L12.46 3.03L7.03 3.03ZM29.43 3.03L26.25 2.48L26.25 0L36.46 0L36.46 2.48L33.28 3.03L33.28 25.43L36.46 25.98L36.46 28.44L26.25 28.44L26.25 25.98L29.43 25.43L29.43 3.03ZM63.87 0L67.05 0L67.05 2.48L63.87 3.03L63.87 28.44L60.02 28.44L46.35 6.48L46.23 6.52L46.23 25.43L49.41 25.98L49.41 28.44L39.20 28.44L39.20 25.98L42.38 25.43L42.38 3.03L39.20 2.48L39.20 0L42.38 0L46.23 0L59.90 21.93L60.02 21.89L60.02 3.03L56.84 2.48L56.84 0L63.87 0ZM67.70 28.44L67.70 25.98L69.80 25.68L79.75 0L83.05 0L92.81 25.68L94.90 25.98L94.90 28.44L86.74 28.44L86.74 25.98L88.89 25.61L87.01 20.37L75.63 20.37L73.69 25.61L75.84 25.98L75.84 28.44L67.70 28.44ZM81.31 4.94L76.82 17.15L85.84 17.15L81.43 4.94L81.31 4.94ZM100.49 0.02L109.79 0.02Q114.43 0.02 116.91 2.08Q119.39 4.14 119.39 7.93L119.39 7.93Q119.39 10 118.24 11.60Q117.09 13.20 114.94 14.12L114.94 14.12Q117.27 14.88 118.29 16.60Q119.32 18.32 119.32 20.84L119.32 20.84L119.32 23.13Q119.32 24.43 119.65 25.06Q119.98 25.68 120.74 25.80L120.74 25.80L121.68 25.92L121.68 28.44L119.61 28.44Q117.36 28.44 116.42 26.88Q115.47 25.31 115.47 23.09L115.47 23.09L115.47 20.88Q115.47 18.55 114.12 17.15Q112.77 15.74 110.51 15.74L110.51 15.74L104.34 15.74L104.34 25.43L107.52 25.98L107.52 28.44L97.30 28.44L97.30 25.98L100.49 25.43L100.49 3.03L97.30 2.48L97.30 0.02L100.49 0.02ZM104.34 3.03L104.34 12.71L109.39 12.71Q112.62 12.71 114.08 11.48Q115.55 10.25 115.55 7.89L115.55 7.89Q115.55 5.64 114.14 4.34Q112.73 3.03 109.79 3.03L109.79 3.03L104.34 3.03ZM131.88 0L131.88 2.48L128.81 2.85L134.77 14.45L140.72 2.85L137.68 2.48L137.68 0L147.44 0L147.44 2.48L145.04 2.85L136.60 18.44L136.60 25.43L139.79 25.98L139.79 28.44L129.59 28.44L129.59 25.98L132.77 25.43L132.77 18.14L124.49 2.85L122.11 2.48L122.11 0L131.88 0Z" transform="translate(102.441 12) scale(1.343)"></path><path fill="#a81414" fill-rule="nonzero" d="M3.18 0.41L11.91 0.41Q17.48 0.41 20.87 3.84Q24.26 7.27 24.26 12.70L24.26 12.70L24.26 16.58Q24.26 22.03 20.87 25.44Q17.48 28.85 11.91 28.85L11.91 28.85L0 28.85L0 26.39L3.18 25.84L3.18 3.44L0 2.89L0 0.41L3.18 0.41ZM11.91 3.44L7.03 3.44L7.03 25.84L11.91 25.84Q15.86 25.84 18.13 23.24Q20.41 20.64 20.41 16.58L20.41 16.58L20.41 12.66Q20.41 8.63 18.13 6.04Q15.86 3.44 11.91 3.44L11.91 3.44ZM49.77 28.85L27.71 28.85L27.71 26.39L30.90 25.84L30.90 3.44L27.71 2.89L27.71 0.41L49.55 0.41L49.55 7.25L46.25 7.25L45.94 3.44L34.75 3.44L34.75 12.64L45.63 12.64L45.63 15.66L34.75 15.66L34.75 25.84L46.17 25.84L46.48 22.03L49.77 22.03L49.77 28.85ZM75.27 4.08L75.27 9.14L72.56 9.14L71.84 5.12Q70.90 4.20 69.53 3.61Q68.16 3.03 66.27 3.03L66.27 3.03Q61.84 3.03 59.45 6.24Q57.07 9.45 57.07 14.39L57.07 14.39L57.07 14.84Q57.07 19.79 59.40 23.02Q61.74 26.25 65.88 26.25L65.88 26.25Q67.81 26.25 69.39 25.64Q70.98 25.04 71.84 24.16L71.84 24.16L72.56 20.14L75.27 20.14L75.27 25.20Q74.04 26.78 71.58 28.02Q69.12 29.26 65.88 29.26L65.88 29.26Q60.33 29.26 56.78 25.16Q53.22 21.05 53.22 14.84L53.22 14.84L53.22 14.43Q53.22 8.18 56.72 4.09Q60.21 0 65.88 0L65.88 0Q69.12 0 71.58 1.26Q74.04 2.52 75.27 4.08L75.27 4.08ZM82.19 3.44L79.00 2.89L79.00 0.41L89.22 0.41L89.22 2.89L86.04 3.44L86.04 25.84L89.22 26.39L89.22 28.85L79.00 28.85L79.00 26.39L82.19 25.84L82.19 3.44ZM95.14 0.41L105.02 0.41Q109.57 0.41 112.10 2.75Q114.63 5.10 114.63 8.93L114.63 8.93Q114.63 12.79 112.10 15.12Q109.57 17.44 105.02 17.44L105.02 17.44L98.98 17.44L98.98 25.84L102.17 26.39L102.17 28.85L91.95 28.85L91.95 26.39L95.14 25.84L95.14 3.44L91.95 2.89L91.95 0.41L95.14 0.41ZM98.98 3.44L98.98 14.43L105.02 14.43Q107.91 14.43 109.35 12.88Q110.78 11.33 110.78 8.96L110.78 8.96Q110.78 6.60 109.35 5.02Q107.91 3.44 105.02 3.44L105.02 3.44L98.98 3.44ZM120.55 3.44L117.36 2.89L117.36 0.41L127.58 0.41L127.58 2.89L124.39 3.44L124.39 13.26L138.18 13.26L138.18 3.44L135 2.89L135 0.41L138.18 0.41L142.03 0.41L145.21 0.41L145.21 2.89L142.03 3.44L142.03 25.84L145.21 26.39L145.21 28.85L135 28.85L135 26.39L138.18 25.84L138.18 16.29L124.39 16.29L124.39 25.84L127.58 26.39L127.58 28.85L117.36 28.85L117.36 26.39L120.55 25.84L120.55 3.44ZM170.14 28.85L148.09 28.85L148.09 26.39L151.27 25.84L151.27 3.44L148.09 2.89L148.09 0.41L169.92 0.41L169.92 7.25L166.62 7.25L166.31 3.44L155.12 3.44L155.12 12.64L166.00 12.64L166.00 15.66L155.12 15.66L155.12 25.84L166.54 25.84L166.86 22.03L170.14 22.03L170.14 28.85ZM176.78 0.43L186.07 0.43Q190.72 0.43 193.20 2.49Q195.68 4.55 195.68 8.34L195.68 8.34Q195.68 10.41 194.53 12.01Q193.38 13.61 191.23 14.53L191.23 14.53Q193.55 15.29 194.58 17.01Q195.61 18.73 195.61 21.25L195.61 21.25L195.61 23.54Q195.61 24.84 195.94 25.47Q196.27 26.09 197.03 26.21L197.03 26.21L197.97 26.33L197.97 28.85L195.90 28.85Q193.65 28.85 192.71 27.29Q191.76 25.72 191.76 23.50L191.76 23.50L191.76 21.29Q191.76 18.96 190.41 17.56Q189.06 16.15 186.80 16.15L186.80 16.15L180.63 16.15L180.63 25.84L183.81 26.39L183.81 28.85L173.59 28.85L173.59 26.39L176.78 25.84L176.78 3.44L173.59 2.89L173.59 0.43L176.78 0.43ZM180.63 3.44L180.63 13.13L185.68 13.13Q188.91 13.13 190.37 11.89Q191.84 10.66 191.84 8.30L191.84 8.30Q191.84 6.05 190.43 4.75Q189.02 3.44 186.07 3.44L186.07 3.44L180.63 3.44Z" transform="translate(102.441 58.183) scale(1)"></path></svg>